HIERARCHY
ROOT Hips
{
	OFFSET 0.0000 0.0000 0.0000
	CHANNELS 6 Xposition Yposition Zposition Zrotation Xrotation Yrotation
	JOINT Ab
	{
		OFFSET -0.0000 8.0846 -0.0000
		CHANNELS 3 Zrotation Xrotation Yrotation
		JOINT Chest
		{
			OFFSET -0.0000 25.0068 -0.0000
			CHANNELS 3 Zrotation Xrotation Yrotation
			JOINT Neck
			{
				OFFSET -0.0000 25.0068 0.0000
				CHANNELS 3 Zrotation Xrotation Yrotation
				JOINT Head
				{
					OFFSET -0.0000 10.7556 0.0000
					CHANNELS 3 Zrotation Xrotation Yrotation
					End Site
					{
						OFFSET -0.0000 16.6222 0.0000
					}
				}
			}
			JOINT LeftCollar
			{
				OFFSET -0.0000 25.0068 0.0000
				CHANNELS 3 Zrotation Xrotation Yrotation
				JOINT LeftShoulder
				{
					OFFSET 19.5556 -0.0000 0.0000
					CHANNELS 3 Zrotation Xrotation Yrotation
					JOINT LeftElbow
					{
						OFFSET 27.1828 0.0000 0.0000
						CHANNELS 3 Zrotation Xrotation Yrotation
						JOINT LeftWrist
						{
							OFFSET 23.3157 0.0000 0.0000
							CHANNELS 3 Zrotation Xrotation Yrotation
							End Site
							{
								OFFSET 0.0000 -14.6667 0.0000
							}
						}
					}
				}
			}
			JOINT RightCollar
			{
				OFFSET -0.0000 25.0068 0.0000
				CHANNELS 3 Zrotation Xrotation Yrotation
				JOINT RightShoulder
				{
					OFFSET -19.5556 0.0000 0.0000
					CHANNELS 3 Zrotation Xrotation Yrotation
					JOINT RightElbow
					{
						OFFSET -27.1828 0.0000 0.0000
						CHANNELS 3 Zrotation Xrotation Yrotation
						JOINT RightWrist
						{
							OFFSET -23.3157 0.0000 0.0000
							CHANNELS 3 Zrotation Xrotation Yrotation
							End Site
							{
								OFFSET -0.0000 -14.6667 0.0000
							}
						}
					}
				}
			}
		}
	}
	JOINT LeftHip
	{
		OFFSET 11.7333 0.0000 0.0000
		CHANNELS 3 Zrotation Xrotation Yrotation
		JOINT LeftKnee
		{
			OFFSET -0.0000 -40.8688 0.0000
			CHANNELS 3 Zrotation Xrotation Yrotation
			JOINT LeftAnkle
			{
				OFFSET -0.0000 -44.4337 0.0000
				CHANNELS 3 Zrotation Xrotation Yrotation
				End Site
				{
					OFFSET -0.0000 -4.8889 16.6222
				}
			}
		}
	}
	JOINT RightHip
	{
		OFFSET -11.7333 0.0000 0.0000
		CHANNELS 3 Zrotation Xrotation Yrotation
		JOINT RightKnee
		{
			OFFSET -0.0000 -40.8688 0.0000
			CHANNELS 3 Zrotation Xrotation Yrotation
			JOINT RightAnkle
			{
				OFFSET -0.0000 -44.4337 0.0000
				CHANNELS 3 Zrotation Xrotation Yrotation
				End Site
				{
					OFFSET -0.0000 -4.8889 16.6222
				}
			}
		}
	}
}
MOTION
Frames: 8
Frame Time: 0.010000
1.4822 88.2123 72.0116 1.1333 358.7719 182.8274 3.1836 6.2573 359.7910 355.1213 6.3511 0.2284 3.4041 340.7254 358.6135 0.6510 9.6530 357.9799 341.0482 358.2530 10.4677 299.7246 17.8870 6.9540 13.4226 355.1284 318.9815 84.6538 355.7371 337.4359 19.4593 359.0305 354.4416 32.8760 47.8678 34.8177 328.4234 348.4842 40.0289 273.8410 348.4801 7.1400 1.1108 351.6418 355.8682 357.5613 18.3283 355.8388 356.0445 349.1017 23.1992 2.5683 344.0614 2.7651 359.3476 28.4337 10.9274 356.3699 340.9851 334.8599 
1.4263 88.0797 71.4782 1.3512 359.1345 182.5922 3.0508 6.3022 359.8740 355.1291 6.4238 0.3110 3.4727 340.6820 358.5972 0.8522 9.8936 357.9324 341.0950 358.2410 10.5329 299.6100 17.6853 7.1986 13.4224 355.0910 319.1678 84.4997 355.6968 337.4046 19.5135 359.0419 354.5023 31.4871 48.0109 35.8870 328.9514 348.6442 39.9669 274.3674 348.3421 7.8564 1.4022 352.2392 356.2201 357.4473 18.6745 355.7134 355.8179 348.3698 23.1936 2.8396 344.1041 2.8763 359.3661 29.6011 11.0675 356.2104 340.4116 334.6955 
1.3420 87.9709 70.9573 1.4615 359.4313 182.4564 2.8273 6.2190 359.9514 355.1444 6.6525 0.3878 3.6799 340.4312 358.5673 0.7786 10.3157 357.8561 341.1223 358.2590 10.3645 299.5420 17.1809 7.4114 13.2041 355.2093 319.3216 84.5603 355.6267 337.1506 19.5645 359.0649 354.5189 30.4529 47.9298 36.6480 329.5661 348.8785 40.0350 274.5723 348.3003 8.6810 1.5412 352.7975 356.4744 357.3787 18.9069 355.6461 355.8755 347.9260 23.1720 2.9673 344.0240 2.7890 359.2992 30.8682 11.4019 355.9400 339.9068 334.4419 
1.2312 87.8794 70.4320 1.4542 359.6940 182.3206 2.5495 6.1790 359.9846 355.1137 6.7442 0.4134 3.5967 340.3407 358.4728 1.1512 10.5721 357.7428 341.0062 358.2426 10.3863 299.6093 17.5749 7.5235 13.4504 355.0401 319.6329 84.4915 355.7232 337.4465 19.7032 359.0534 354.5305 29.6316 47.7665 37.1354 330.2277 349.1028 40.2166 275.0719 348.2833 9.7522 1.5342 353.4200 356.6676 357.3083 18.9346 355.7808 356.0406 347.5950 22.9988 2.9500 343.8305 2.5619 359.1954 32.2884 11.7475 352.9089 341.7640 334.1278 
1.1235 87.7978 69.9215 1.4141 359.9428 182.2808 2.3896 6.1221 359.9359 354.8959 6.8473 0.3487 3.4851 340.3406 358.3851 1.6118 10.7373 357.6336 341.0257 358.2501 10.3094 299.6131 17.7015 7.6582 13.5675 354.9695 319.9054 84.5025 355.8264 337.6115 19.8807 359.0446 354.6337 29.0706 47.7165 37.3585 330.9244 349.3516 40.2670 275.2350 348.2439 10.5770 1.4898 353.9987 356.7752 357.2515 19.0022 355.6454 356.0816 347.2043 22.9923 2.8702 343.5977 2.5624 359.3088 33.7155 11.4593 353.0868 341.1991 334.2334 
1.0256 87.7105 69.4259 1.3945 0.0939 182.3106 2.2223 6.0454 359.8509 354.7356 6.8719 0.2647 3.4552 340.2969 358.3492 1.9044 10.9252 357.5724 341.0351 358.2471 10.3029 299.7004 17.7573 7.6455 13.5696 355.0084 320.1909 84.5269 355.8231 337.6698 19.9642 359.0575 354.7145 28.8907 47.6644 37.3237 331.5546 349.5503 40.4280 275.6855 348.3193 11.6111 1.4807 354.4775 356.8100 357.1603 19.0609 355.6084 356.0598 346.8528 22.8309 2.7896 343.2127 2.5225 359.4455 35.2232 11.2193 353.0694 340.8188 334.1827 
0.9321 87.6127 68.9470 1.3577 0.1635 182.3190 1.9389 5.9918 359.8810 354.6900 6.7178 0.2789 3.5140 340.3354 358.2722 2.0079 11.1157 357.4673 340.9078 358.2571 10.2666 299.9571 18.2695 7.6342 13.7602 354.9521 320.5319 84.4060 355.8197 337.9021 20.0206 359.0625 354.6292 28.9466 47.5912 37.1105 332.2990 349.8233 40.5980 275.6597 348.4249 12.5412 1.4604 354.8973 356.8349 357.0435 19.0603 355.5840 356.2598 346.6334 22.7640 2.6595 342.6757 2.5558 359.7343 36.8328 10.6776 353.0056 340.4681 334.2626 
0.8273 87.5183 68.4727 1.3134 0.3093 182.4038 1.7820 6.0334 359.7800 354.5437 6.5971 0.1873 3.5095 340.3418 358.1859 2.1694 11.3254 357.3641 340.8486 358.2394 10.3477 300.0898 19.4158 7.4865 14.3728 354.6619 320.9767 84.1807 355.8334 338.5573 20.0906 359.0501 354.5534 29.3398 47.3443 36.5898 333.1352 350.1238 40.9104 275.8043 348.4907 13.5332 1.4144 355.4053 356.8305 356.9622 18.9878 355.5522 356.3800 346.3420 22.6916 2.4490 342.1892 2.4617 0.1690 38.4524 9.7706 353.0422 340.1355 334.6159 
